# xmcd
#
# Track frame offsets: 
#        150
#        16630
#        37200
#        59788
#        77895
#        92345
#        115055
#        139760
#        157038
#        177470
#
# Disc length: 2566 seconds
#
# Revision: 4
# Processed by: cddbd v1.5.1PL0 Copyright (c) Steve Scherf et al.
# Submitted via: ExactAudioCopy v0.95a5
#
DISCID=820a040a
DTITLE=Herb Alpert - My Abstract Heart
DYEAR=1989
DGENRE=Jazz
TTITLE0=Three O'Clock Jump
TTITLE1=Romance Dance
TTITLE2=My Abstract Heart
TTITLE3=Wish You Were Here
TTITLE4=Fun House
TTITLE5=Legs
TTITLE6=Herb Alpert and Lani Hall/When The Lights Go Down Low
TTITLE7=Just A Dream Away
TTITLE8=Kalimba
TTITLE9=Soho
EXTD=more info - MillenniumMusicProjectFormat - SYNTAX=SongTitle{Subtit
EXTD=le}[miscInfo](Lyricist;Composer;Date,Artist,Location,State,Countr
EXTD=y) YEAR: 1989
EXTT0=
EXTT1=
EXTT2=
EXTT3=
EXTT4=
EXTT5=
EXTT6=
EXTT7=
EXTT8=
EXTT9=
PLAYORDER=
